<?xml version="1.0" encoding="UTF-8"?>
<svg id="Capa_1" data-name="Capa 1" xmlns="http://www.w3.org/2000/svg" viewBox="0 0 78.89 78.89">
  <defs>
    <style>
      .cls-1 {
        fill: #e5e5e9;
      }

      .cls-2 {
        fill: none;
        stroke: #626475;
        stroke-miterlimit: 10;
        stroke-width: .25px;
      }
    </style>
  </defs>
  <path class="cls-1" d="M39.45,.15c1.45,0,3.07,.96,3.81,2.76,1.53,3.69,3.05,7.38,4.57,11.07,5.76,13.96,11.53,27.92,17.29,41.88,.91,2.21,1.81,4.42,2.67,6.64,.82,2.1,.37,3.84-1.25,5.12-1.29,1.02-2.69,.97-4.11,.39-2.17-.9-4.33-1.83-6.47-2.79-4.24-1.89-8.47-3.79-12.7-5.72-2.6-1.18-5.17-1.1-7.74,.05-6.06,2.71-12.12,5.43-18.18,8.13-1.08,.48-2.18,.89-3.41,.65-2.3-.45-3.74-2.59-3.08-4.83,.52-1.74,1.25-3.41,1.94-5.1,4.73-11.59,9.47-23.18,14.21-34.76,2.75-6.73,5.51-13.47,8.27-20.2,.2-.49,.43-.97,.7-1.42,.71-1.25,2.16-1.88,3.46-1.87Z"/>
  <circle class="cls-2" cx="39.45" cy="39.45" r="39.45"/>
</svg>