<?xml version="1.0" encoding="UTF-8"?>
<svg id="Capa_1" data-name="Capa 1" xmlns="http://www.w3.org/2000/svg" viewBox="0 0 80.16 111.59">
  <defs>
    <style>
      .cls-1 {
        fill: #88869d;
      }
    </style>
  </defs>
  <path class="cls-1" d="M80.16,39.87c-.07,10.37-3.9,19.58-8.32,28.58-7.21,14.66-16.69,27.83-26.99,40.43-2.84,3.48-6.42,3.66-9.23,.25C22.63,93.35,10.84,76.8,3.57,57.47-2.3,41.83-1.42,26.96,9.9,13.96,20.3,2.03,33.69-2.36,49.1,1.2c15.76,3.64,25.58,13.92,29.81,29.45,.81,2.97,.86,6.15,1.25,9.23Zm-25.39,.52c.07-8.42-6.46-15.24-14.63-15.26-7.89-.01-14.84,6.81-15,14.74-.16,7.94,6.61,14.81,14.67,14.88,8.38,.08,14.88-6.17,14.96-14.37Z"/>
</svg>