<?xml version="1.0" encoding="UTF-8"?>
<svg id="Capa_1" data-name="Capa 1" xmlns="http://www.w3.org/2000/svg" viewBox="0 0 80.65 80.61">
  <defs>
    <style>
      .cls-1 {
        fill: #606374;
      }
    </style>
  </defs>
  <path class="cls-1" d="M33.44,0c9.44,.39,18.57,5.58,24.29,15.97,5.61,10.18,5.14,20.5-.61,30.58-.5,.88-1.08,1.73-1.67,2.56-1.23,1.71-.7,2.84,1.26,2.82,2.34-.03,3.74,1.24,5.19,2.72,5.36,5.45,10.76,10.85,16.14,16.28,.43,.43,.88,.86,1.26,1.33,1.85,2.29,1.8,5.01-.11,6.9-1.89,1.87-4.77,2.05-6.89-.01-6.5-6.32-12.86-12.78-19.27-19.19-.6-.6-.84-1.34-.97-2.18-.6-3.79-.69-3.82-3.98-1.64-5.33,3.53-11.16,5.34-17.57,5.27C13.6,61.22-.16,47.27,0,30.42,.16,13.48,14.01-.1,33.44,0ZM9.6,30.63c-.05,11.71,9.32,21.25,21,21.37,11.77,.12,21.39-9.42,21.43-21.25,.04-11.84-9.51-21.41-21.3-21.37-11.67,.04-21.07,9.5-21.12,21.24Z"/>
</svg>